<?xml version="1.0" encoding="UTF-8" standalone="no"?>
<!-- Created with Inkscape (http://www.inkscape.org/) -->

<svg
   version="1.1"
   id="svg1"
   width="2536"
   height="814.66669"
   viewBox="0 0 2536 814.66669"
   sodipodi:docname="constellatory-wordmark.svg"
   inkscape:version="1.3.2 (091e20ef0f, 2023-11-25)"
   xml:space="preserve"
   inkscape:export-filename="../Pictures/constellatory-wordmark.png"
   inkscape:export-xdpi="96"
   inkscape:export-ydpi="96"
   xmlns:inkscape="http://www.inkscape.org/namespaces/inkscape"
   xmlns:sodipodi="http://sodipodi.sourceforge.net/DTD/sodipodi-0.dtd"
   xmlns="http://www.w3.org/2000/svg"
   xmlns:svg="http://www.w3.org/2000/svg"><defs
     id="defs1" /><sodipodi:namedview
     id="namedview1"
     pagecolor="#505050"
     bordercolor="#ffffff"
     borderopacity="1"
     inkscape:showpageshadow="0"
     inkscape:pageopacity="0"
     inkscape:pagecheckerboard="1"
     inkscape:deskcolor="#505050"
     showgrid="false"
     showguides="true"
     inkscape:zoom="0.5275"
     inkscape:cx="1315.6398"
     inkscape:cy="441.70616"
     inkscape:window-width="1920"
     inkscape:window-height="1016"
     inkscape:window-x="0"
     inkscape:window-y="0"
     inkscape:window-maximized="1"
     inkscape:current-layer="g1" /><g
     inkscape:groupmode="layer"
     inkscape:label="Image"
     id="g1"><g
       id="g2"
       transform="translate(8.1360907,55.168866)"><path
         style="fill:#ffffff"
         d="m 1360.8259,724.99371 c -36.8141,-1.57183 -67.3229,-3.24605 -67.7974,-3.72051 -0.7543,-0.75429 32.4032,-200.95442 33.4866,-202.18712 1.0475,-1.19193 28.5788,2.99631 28.5788,4.3476 0,0.81667 -3.3091,40.77298 -7.3535,88.7918 -4.0444,48.01883 -7.0633,88.06335 -6.7085,88.98783 0.5049,1.31575 12.9432,1.68087 57.262,1.68087 h 56.617 l 0.4249,12.66966 0.4248,12.66965 -14,-0.19096 c -7.7,-0.10503 -44.1206,-1.477 -80.9347,-3.04882 z m 99.9616,2.28 c 0.3162,-0.57541 18.7739,-47.5462 41.0173,-104.37953 22.2433,-56.83334 40.4829,-103.41691 40.5324,-103.51906 0.05,-0.10214 4.7535,-0.40214 10.4532,-0.66666 l 10.363,-0.48095 51.8788,101.33333 51.8788,101.33334 -6.2418,0.88319 c -3.4331,0.48576 -10.4419,0.93272 -15.5753,0.99325 l -9.3333,0.11006 -15.6965,-29.85503 -15.6965,-29.85503 -22.3035,0.66435 c -12.2669,0.36539 -32.728,1.05319 -45.4691,1.52844 l -23.1656,0.8641 -12.1677,30.66667 -12.1678,30.66667 -14.4405,0.37953 c -7.9424,0.20874 -14.182,-0.0913 -13.8659,-0.66667 z m 124.5851,-89.17479 5.612,-0.68508 -18.0553,-36.25983 c -9.9305,-19.94291 -18.5084,-36.42736 -19.0622,-36.63212 -0.8286,-0.30638 -29.4398,72.2775 -29.4398,74.68603 0,0.86838 52.5856,-0.0885 60.9453,-1.109 z m 165.0608,74.80453 c -0.3017,-1.47177 -3.6467,-41.67594 -7.4333,-89.34261 -3.7867,-47.66666 -7.1314,-86.9334 -7.4327,-87.25941 -0.3013,-0.32601 -16.4617,0.49335 -35.9121,1.82082 -19.4503,1.32746 -35.5557,2.19419 -35.7898,1.92608 -0.2342,-0.26812 -0.7282,-6.03749 -1.0979,-12.82082 -0.4706,-8.63361 -0.2225,-12.34137 0.8271,-12.36013 0.8246,-0.0147 39.2992,-3.25188 85.4992,-7.19364 46.2,-3.94177 84.216,-6.96371 84.48,-6.71542 0.2641,0.24829 1.0541,5.67529 1.7557,12.05999 0.8939,8.13586 0.8464,11.87378 -0.159,12.49516 -0.789,0.48763 -16.579,2.27552 -35.089,3.97309 -18.5099,1.69757 -34.0363,3.45875 -34.5032,3.91372 -0.4668,0.45498 2.6558,39.82723 6.9392,87.4939 4.2834,47.66666 7.8153,87.93094 7.8488,89.47617 0.057,2.62071 -0.9284,2.89012 -14.6617,4.00927 -14.1585,1.15379 -14.7437,1.09723 -15.2713,-1.47617 z m -572.0061,-24.88432 c -39.6,-13.98306 -72.4935,-25.88003 -73.0967,-26.43771 -0.9097,-0.84107 76.2583,-186.95998 78.408,-189.10969 1.0136,-1.01358 26.022,9.11517 26.022,10.53926 0,0.66376 -14.487,37.35902 -32.1933,81.54501 -17.7063,44.186 -32.4578,81.59173 -32.7811,83.12386 -0.5426,2.57102 3.6431,4.21477 54.3164,21.33076 30.1974,10.1998 55.5317,18.93283 56.2985,19.40675 0.9311,0.57544 0.3978,4.89449 -1.6057,13.00257 -1.6499,6.6775 -3.0827,12.11436 -3.184,12.08192 -0.1013,-0.0324 -32.5841,-11.49967 -72.1841,-25.48273 z m 780.5408,5.49674 c -48.0461,-5.61659 -83.7286,-38.34609 -92.652,-84.98424 -4.6547,-24.32794 -0.044,-50.27737 12.8903,-72.55293 6.6257,-11.41056 22.4325,-27.7824 33.792,-34.99998 21.3277,-13.55119 51.6018,-20.51183 78.4061,-18.02716 13.0153,1.20647 16.0938,1.87274 28.0584,6.07261 12.0336,4.22407 15.9768,6.32174 26.6439,14.17382 25.9419,19.09582 41.0731,50.33738 41.0961,84.85167 0.038,57.27541 -40.2842,98.94555 -102.109,105.52186 -13.2566,1.41012 -13.5933,1.4094 -26.1258,-0.0557 z m 32.4265,-27.17653 c 13.1804,-2.52183 24.7184,-7.36869 34.9908,-14.69894 10.485,-7.48196 16.4576,-14.35999 22.5696,-25.99102 6.3766,-12.13474 8.8094,-22.29769 8.7859,-36.702 -0.039,-24.0114 -6.8165,-41.10473 -22.5364,-56.84089 -12.2664,-12.2791 -24.9065,-19.05788 -40.8247,-21.89397 -13.6308,-2.42854 -17.7552,-2.42354 -31.8742,0.0386 -33.2501,5.79835 -57.26,26.92462 -65.5005,57.63385 -2.666,9.93527 -2.6407,30.65426 0.05,41.00921 10.7454,41.35154 50.8425,65.76749 94.3394,57.44516 z m 145.7488,2.88817 c -0.7781,-3.495 -23.2557,-190.07578 -23.7301,-196.97887 l -0.3194,-4.64554 18.6667,-2.26788 c 46.6618,-5.66913 56.034,-5.6335 71.8207,0.27307 16.4687,6.16172 28.2452,20.07651 32.2586,38.11599 5.2018,23.38126 -2.4175,44.46824 -20.6272,57.08762 -2.9987,2.07805 -5.4402,4.14668 -5.4256,4.59694 0.015,0.45027 3.0713,2.61867 6.7927,4.81867 9.0561,5.35359 22.727,19.91228 40.6908,43.33333 8.1558,10.63334 19.0458,24.13334 24.2002,30 5.1543,5.86667 9.2401,10.80469 9.0795,10.97339 -0.1606,0.16869 -7.3624,1.11315 -16.0039,2.09879 l -15.7118,1.79208 -4.4634,-5.43213 c -2.4548,-2.98767 -11.822,-14.73213 -20.8159,-26.09879 -20.067,-25.36095 -34.5455,-39.86891 -44.8262,-44.91733 -6.7861,-3.3324 -8.9492,-3.72524 -19.4519,-3.53262 -6.4992,0.11919 -12.3919,0.7919 -13.0949,1.4949 -1.0803,1.0803 6.4657,72.87519 9.0111,85.73425 0.679,3.43043 0.6254,3.45284 -11.9641,5 -16.1514,1.98489 -15.305,2.06096 -16.0859,-1.44587 z m 41.2839,-118.58486 c 23.7426,-5.03397 34.7006,-22.37231 28.068,-44.41064 -3.8716,-12.86448 -15.9612,-20.67117 -32.0117,-20.67117 -7.286,0 -28.9576,2.45683 -29.8892,3.38843 -0.3097,0.30965 1.1472,15.04571 3.2374,32.74681 l 3.8004,32.18381 10.0642,-0.91188 c 5.5353,-0.50153 13.0642,-1.54794 16.7309,-2.32536 z m -1161.3334,72.83864 c -30.0665,-13.42659 -55.49,-24.9185 -56.4965,-25.53759 -1.4337,-0.88187 7.477,-21.38159 41.1506,-94.6708 l 42.9805,-93.54519 7.5161,3.31985 c 21.1668,9.34943 98.2407,43.71498 98.6135,43.96953 0.7213,0.49269 -9.3507,23.21042 -10.2905,23.21042 -0.4821,0 -18.4929,-7.83793 -40.0241,-17.41762 -21.5312,-9.5797 -39.6283,-16.9297 -40.2158,-16.33333 -1.3378,1.35797 -25.2363,54.33507 -25.2267,55.92131 0,0.63963 17.4038,8.88009 38.6666,18.31212 21.2628,9.43203 38.6597,17.42797 38.6597,17.76876 0,2.81304 -10.034,23.08811 -11.1885,22.60789 -0.813,-0.33819 -18.4335,-8.16984 -39.1566,-17.40368 -20.7232,-9.23383 -37.8725,-16.78879 -38.1095,-16.78879 -0.2371,0 -6.3385,13.21332 -13.5587,29.36293 -7.8641,17.59007 -12.6315,29.82103 -11.8904,30.50548 0.68033,0.62841 19.237,9.08762 41.237,18.79826 22,9.71064 40.4778,18.09095 41.0617,18.62291 0.7588,0.6912 -7.2638,21.92771 -8.894,23.5433 -0.092,0.0914 -24.7677,-10.81918 -54.8344,-24.24576 z m 1348.0541,18.87887 c -0.3937,-3.00629 -2.537,-27.66598 -4.763,-54.79932 l -4.0472,-49.33333 -8.4103,-8.66667 c -4.6257,-4.76667 -23.2807,-24.50073 -41.4557,-43.85348 -23.6998,-25.23554 -32.5268,-35.4666 -31.2116,-36.17614 1.0085,-0.54414 7.2337,-1.4069 13.8337,-1.91726 6.6,-0.51035 13.2,-1.19696 14.6667,-1.5258 2.0968,-0.47012 9.2035,6.53592 33.2542,32.7832 16.8231,18.35961 30.9994,32.9255 31.5028,32.36863 0.5034,-0.55687 11.5826,-16.91248 24.6204,-36.34581 13.0378,-19.43333 24.239,-35.93333 24.8915,-36.66666 0.9956,-1.11903 34.409,-3.36643 34.4006,-2.31381 0,0.19408 -15.4132,22.94462 -34.248,50.55676 l -34.2452,50.20389 3.6121,51.44324 c 1.9867,28.29379 3.5971,52.75648 3.5786,54.36155 -0.036,3.1066 -1.9531,3.6122 -18.3154,4.82989 l -6.9484,0.51711 z M 837.7607,538.68062 c -8.4333,-4.49008 -15.5409,-8.33648 -15.7946,-8.54753 -0.2538,-0.21106 20.2962,-34.97206 45.6666,-77.24666 25.3704,-42.27461 46.1185,-77.26702 46.1068,-77.76092 -0.012,-0.4939 -13.5116,-10.41187 -30,-22.03993 -16.4883,-11.62807 -29.9788,-21.61672 -29.9788,-22.19702 0,-0.5803 3.3489,-5.33513 7.442,-10.56631 l 7.442,-9.51122 4.2247,2.55032 c 2.3235,1.40268 35.1246,20.40593 72.8913,42.22945 37.7667,21.82353 69.4405,40.38999 70.3865,41.25882 1.3888,1.27551 0.7469,3.66671 -3.3333,12.4183 -2.7793,5.96124 -5.4995,10.86584 -6.0448,10.89911 -0.5453,0.0333 -15.2121,-6.85053 -32.5931,-15.29733 -17.381,-8.4468 -32.1485,-15.17556 -32.8168,-14.9528 -0.6683,0.22276 -20.2314,35.44381 -43.4736,78.26899 -23.2423,42.82518 -42.8285,78.04274 -43.5251,78.26125 -0.6966,0.2185 -8.1665,-3.27643 -16.5998,-7.76652 z M 700.30004,437.78427 c -21.16852,-7.01966 -37.11417,-25.18422 -39.51192,-45.01016 -0.60394,-4.99373 0.11168,-6.61357 8.48983,-19.21725 l 9.14937,-13.76385 0.32765,5.88392 c 1.70482,30.61531 15.2216,47.21725 38.4428,47.21725 8.28796,0 10.03484,-0.4559 14.34564,-3.74391 7.91723,-6.03876 10.75681,-12.95003 10.78766,-26.25609 0.0222,-9.58193 -0.94611,-14.7109 -6.26606,-33.18961 -7.89003,-27.4058 -9.43799,-36.28474 -8.71788,-50.00474 1.01651,-19.36704 12.18291,-36.9648 29.33007,-46.22289 7.76336,-4.1916 9.29663,-4.53673 19.75012,-4.44571 8.99976,0.0784 13.04348,0.80782 19.63868,3.54271 18.7286,7.76625 32.1063,20.98953 41.3893,40.9116 5.3112,11.39833 5.7454,9.77989 -6.6876,24.92825 -4.4678,5.44359 -8.5272,9.42861 -9.0208,8.85559 -0.4937,-0.57303 -1.6095,-4.37562 -2.4797,-8.4502 -8.196,-38.37764 -47.88449,-59.19724 -62.89067,-32.99088 -2.74388,4.79183 -3.27913,7.48295 -3.26173,16.39921 0.0184,9.45225 0.87916,13.1714 7.56002,32.66667 4.14656,12.1 8.28394,25.3 9.19417,29.33333 2.27945,10.10051 1.99407,28.68825 -0.57468,37.43042 -2.89652,9.85766 -11.42281,22.41373 -18.83471,27.73656 -13.36165,9.5956 -35.40481,13.28259 -50.15956,8.38978 z m -76.58024,-52.94607 -5.37419,-3.15447 -23.11243,-93.50816 c -12.71184,-51.4295 -23.54699,-93.00715 -24.07813,-92.39479 -0.72951,0.84109 -34.15533,115.95578 -42.76828,147.2891 l -1.33108,4.84237 -10.71991,-2.69214 c -7.24401,-1.81922 -10.51333,-3.23047 -10.08281,-4.35239 0.35041,-0.91314 12.12228,-45.67004 26.15972,-99.4598 14.03745,-53.78974 25.65493,-97.93184 25.81663,-98.09354 0.29056,-0.29056 21.29435,4.90903 21.78544,5.39309 0.13976,0.13776 12.94812,42.83612 28.46303,94.88525 15.5149,52.04914 28.63012,95.08436 29.14493,95.63384 0.51481,0.54947 17.0418,-30.65053 36.72664,-69.33335 19.68485,-38.68281 36.15528,-70.73847 36.60096,-71.23481 0.44568,-0.49633 5.95151,1.90367 12.23518,5.33334 l 11.42485,6.23576 -51.01924,88.66668 c -28.06059,48.76667 -51.80177,88.76383 -52.75819,88.88258 -0.95641,0.11875 -4.15732,-1.2036 -7.11312,-2.93856 z M 382.98651,320.29518 c -39.33741,-7.18362 -65.58225,-25.67051 -80.54269,-56.73435 -8.579,-17.8134 -10.66615,-27.32825 -10.67538,-48.66666 -0.006,-14.69115 0.56031,-20.08336 3.08266,-29.33334 11.58479,-42.48385 47.65391,-72.14181 92.24288,-75.84705 34.0546,-2.82986 73.33992,13.01499 93.51452,37.71697 8.16232,9.99403 16.30344,26.44704 19.07303,38.54615 2.59057,11.31705 2.67551,30.92773 0.1897,43.79998 -8.40292,43.51286 -38.54158,77.96154 -77.44391,88.51887 -9.31365,2.52754 -30.6311,3.60822 -39.44081,1.99943 z m 39.44081,-29.93834 c 30.94471,-11.74238 51.33333,-43.69196 51.33333,-80.44087 0,-35.52674 -22.8833,-63.17371 -58.93944,-71.20899 -21.42459,-4.77458 -38.23294,-2.9856 -54.7719,5.82957 -44.82362,23.89074 -54.94659,90.56264 -19.23112,126.66 9.35808,9.45816 20.8787,16.14092 35.60913,20.65578 13.85157,4.2455 32.46552,3.64035 46,-1.49549 z m -250.87791,5.3177 c -25.06419,-4.77482 -44.7852,-15.24423 -59.73555,-31.71217 -37.456165,-41.25829 -37.683925,-103.74004 -0.52598,-144.2914 19.96875,-21.792377 47.30503,-33.082227 80.47277,-33.235177 24.77574,-0.11425 40.0782,3.51624 65,15.421157 14.29608,6.82911 14.33323,6.85929 14.29217,11.60873 -0.0468,5.41084 -2.36521,24.2793 -3.06986,24.98395 -0.25528,0.25528 -5.02519,-2.57335 -10.59979,-6.28585 -40.51782,-26.98349 -92.54209,-26.10993 -121.22186,2.03548 -15.1674,14.8848 -22.30169,31.38504 -23.36048,54.02824 -1.16825,24.98433 5.43376,43.10525 21.62649,59.35943 26.05711,26.15601 69.55159,30.85308 112.7509,12.17621 7.53567,-3.25798 10.58243,-4.05546 10.58243,-2.76989 0,0.99294 -0.68798,7.85555 -1.52884,15.25026 l -1.52884,13.44493 -4.8045,2.01937 c -2.64247,1.11066 -10.50449,3.52669 -17.47115,5.36898 -15.83069,4.1863 -45.82151,5.46605 -60.87791,2.59775 z"
         id="path4"
         sodipodi:nodetypes="ssssssscccsssscscccsscccsscccssscsssssssssssssssssssssssssssssssssssssssssssssssssssssssscsssssssssscssssssssssssscssssscssssscssssssssssssscssssssssscscssscsssscssscssssssssssssscsssssssssssscsssssssscssscsssssssssscssssscsssssssssssssssssssssssssssscsss" /><g
         inkscape:label="Layer 1"
         id="layer1"
         transform="matrix(3.0970057,0,0,3.0970057,67.297717,-27.896309)"><circle
           id="path1"
           style="fill:#000000;stroke:#000000;stroke-width:0.264583"
           cx="23.846415"
           cy="90.879349"
           r="0.045108449" /><circle
           id="path2"
           style="fill:#000000;stroke:#000000;stroke-width:0.264583"
           cx="41.584759"
           cy="62.819984"
           r="0.045108449" /><path
           style="fill:#ffffff;fill-opacity:1;stroke-width:0.245681"
           d="M 9.1588512,29.788865 C 16.959777,16.423917 12.533293,4.2159766 16.959777,16.190918 21.386259,28.165862 35.509479,37.256641 21.386259,29.019584 7.2630421,20.782537 -10.070885,21.070393 7.2630421,20.560629 24.596966,20.050855 38.352565,10.167379 23.904388,20.050855"
           id="path5" /><path
           style="fill:#ffffff;fill-opacity:1;stroke-width:0.279786"
           d="m 175.83827,47.440048 c 16.2481,-27.619475 0.41173,-51.9568459 15.12015,-25.680228 14.70842,26.276597 44.4748,45.754638 14.70842,26.276597 -29.76637,-19.478028 -62.77723,-19.258429 -29.76637,-19.478028 33.01085,-0.2196 68.43772,-26.7544035 33.01085,-0.191533 -35.42688,26.56287 -37.90294,34.663626 -33.07305,19.073192 z"
           id="path6" /><path
           style="fill:#ffffff;fill-opacity:1;stroke-width:0.264583"
           d="m 283.68486,97.923588 c 17.43923,-34.941473 3.94843,-68.52163 17.53672,-35.641753 13.58829,32.879863 44.45412,53.870425 13.77495,32.953583 -30.67916,-20.916863 -69.78785,-21.503003 -31.79319,-21.994033 37.99465,-0.49103 58.36936,-19.107297 37.93521,-0.66224 -20.43415,18.445073 -21.29613,18.151413 -21.29613,18.151413 l -23.35773,22.395872 z"
           id="path8" /><path
           style="fill:#ffffff;fill-opacity:1;stroke-width:0.264583"
           d="m 79.452974,28.247787 c 11.70093,-18.96698 3.05363,-38.1916697 12.4648,-19.03002 9.411176,19.16165 30.641966,35.58116 9.411176,19.16165 -21.230766,-16.4195 -49.91855,-18.00657 -21.518146,-17.16112 28.400406,0.84545 58.999716,-15.41647 28.532046,0.84545"
           id="path9" /><path
           style="fill:#ffffff;fill-opacity:1;stroke-width:0.264583"
           d="m 389.5117,147.6167 c 27.07106,-44.4973 2.10622,-98.051658 26.64092,-43.65742 24.53468,54.39425 86.41747,94.77183 24.6997,54.39425 -61.71776,-40.37761 -129.32028,-39.3208 -60.74994,-39.71015 68.57034,-0.38935 139.779,-61.406267 68.57034,-0.38935 -71.20866,61.01693 -79.8226,92.81396 -70.09807,61.67697"
           id="path10" /></g></g></g></svg>
